/* XPM */
static char * dark2_xpm[] = {
"24 6 2 1",
" 	c #000000",
".	c #FFFFFF",
".   .. .. .  ...   .   .",
" ... . .. . . . .... ...",
" ..... .. .  ...  ..   .",
" ... . .. . . .... . ...",
".   ...  .. . .   ..   .",
"........................"};
